<?xml version="1.0" standalone="no"?>
<!DOCTYPE svg PUBLIC "-//W3C//DTD SVG 20010904//EN"
 "http://www.w3.org/TR/2001/REC-SVG-20010904/DTD/svg10.dtd">
<svg version="1.0" xmlns="http://www.w3.org/2000/svg"
 width="680.000000pt" height="680.000000pt" viewBox="0 0 680.000000 680.000000"
 preserveAspectRatio="xMidYMid meet">

<g transform="translate(0.000000,680.000000) scale(0.100000,-0.100000)"
fill="black" stroke="none">
<path d="M2745 6461 c-302 -56 -429 -119 -590 -293 -87 -94 -159 -217 -203
-348 l-35 -105 -1 -185 c0 -174 1 -190 27 -271 53 -165 120 -280 229 -392 153
-155 307 -239 520 -282 116 -24 300 -16 418 18 169 48 306 127 424 244 121
120 200 254 252 430 23 78 26 106 27 243 1 185 -18 270 -90 420 -53 110 -101
178 -187 264 -214 216 -504 310 -791 257z"/>
<path d="M3954 5699 c-8 -17 -8 -47 -1 -99 7 -54 6 -102 -3 -171 -7 -53 -10
-104 -7 -113 7 -19 22 -25 136 -61 47 -14 101 -33 120 -42 250 -110 395 -207
572 -383 154 -153 262 -305 358 -504 73 -151 85 -180 117 -286 44 -148 91
-391 78 -412 -3 -4 -501 -8 -1107 -8 -649 0 -1108 -4 -1116 -9 -12 -8 -15 -46
-15 -206 -1 -135 3 -200 10 -206 7 -6 437 -9 1105 -9 614 0 1100 -4 1108 -9
14 -9 10 -84 -10 -163 -5 -21 -14 -57 -20 -80 -21 -84 -71 -243 -80 -252 -5
-6 -9 -16 -9 -24 0 -19 -98 -214 -150 -298 -153 -245 -357 -448 -603 -600
-132 -82 -255 -135 -414 -179 -96 -27 -97 -30 -78 -171 11 -74 14 -142 10
-180 -5 -51 -3 -64 13 -84 l19 -23 89 22 c746 188 1334 758 1582 1531 76 238
82 295 82 779 0 386 0 396 -26 508 -86 383 -262 739 -513 1036 -104 122 -100
118 -206 212 -174 154 -297 238 -485 331 -179 88 -382 159 -490 171 -52 5 -56
4 -66 -18z"/>
<path d="M1860 4354 c-326 -59 -584 -250 -721 -532 -110 -227 -128 -472 -52
-707 83 -257 247 -447 492 -570 147 -75 218 -90 416 -90 149 0 180 3 255 24
254 72 493 269 607 501 24 49 64 164 74 214 6 28 13 62 16 76 8 34 8 226 0
272 -55 316 -244 576 -516 712 -149 75 -234 97 -401 101 -80 2 -156 2 -170 -1z"/>
<path d="M2678 2220 c-206 -44 -339 -118 -493 -274 -127 -128 -176 -207 -233
-375 -36 -106 -36 -106 -36 -286 0 -154 3 -190 21 -250 27 -93 67 -188 92
-224 12 -16 21 -32 21 -36 0 -11 99 -135 142 -178 99 -98 276 -202 403 -237
185 -50 339 -50 531 -1 183 47 409 209 523 375 53 76 112 205 139 301 22 78
25 111 25 245 1 141 -2 164 -27 250 -52 177 -124 300 -250 425 -230 229 -554
329 -858 265z"/>
</g>
</svg>
